HIERARCHY
ROOT Hips
{
  OFFSET 0 0 0
  CHANNELS 6 Xposition Yposition Zposition Zrotation Yrotation Xrotation
  JOINT LeftThigh
  {
    OFFSET 8.409438 0 -5.917753
    CHANNELS 3 Zrotation Yrotation Xrotation
    JOINT LeftLeg
    {
      OFFSET 0 0 -42.358652
      CHANNELS 3 Zrotation Yrotation Xrotation
      JOINT LeftFoot
      {
        OFFSET 0 0 -39.357303
        CHANNELS 3 Zrotation Yrotation Xrotation
      }
    }
  }
  JOINT RightThigh
  {
    OFFSET -8.409438 0 -5.917753
    CHANNELS 3 Zrotation Yrotation Xrotation
    JOINT RightLeg
    {
      OFFSET 0 0 -42.358652
      CHANNELS 3 Zrotation Yrotation Xrotation
      JOINT RightFoot
      {
        OFFSET 0 0 -39.357303
        CHANNELS 3 Zrotation Yrotation Xrotation
      }
    }
  }
  JOINT SpineLow
  {
    OFFSET 0 0 4.719101
    CHANNELS 3 Zrotation Yrotation Xrotation
    JOINT SpineMid
    {
      OFFSET 0 0 12.899191
      CHANNELS 3 Zrotation Yrotation Xrotation
      JOINT Chest
      {
        OFFSET 0 0 12.899191
        CHANNELS 3 Zrotation Yrotation Xrotation
        JOINT LeftShoulder
        {
          OFFSET 7.550562 1.41573 9.438202
          CHANNELS 3 Zrotation Yrotation Xrotation
          JOINT LeftArm
          {
            OFFSET 9.155056 0 4.247191
            CHANNELS 3 Zrotation Yrotation Xrotation
            JOINT LeftForearm
            {
              OFFSET 0 0 25.771955
              CHANNELS 3 Zrotation Yrotation Xrotation
              JOINT LeftHand
              {
                OFFSET 0 0 25.197169
                CHANNELS 3 Zrotation Yrotation Xrotation
              }
            }
          }
        }
        JOINT RightShoulder
        {
          OFFSET -7.550562 1.41573 9.438202
          CHANNELS 3 Zrotation Yrotation Xrotation
          JOINT RightArm
          {
            OFFSET -9.155056 0 4.247191
            CHANNELS 3 Zrotation Yrotation Xrotation
            JOINT RightForearm
            {
              OFFSET 0 0 -25.771955
              CHANNELS 3 Zrotation Yrotation Xrotation
              JOINT RightHand
              {
                OFFSET 0 0 -25.197169
                CHANNELS 3 Zrotation Yrotation Xrotation
              }
            }
          }
        }
        JOINT Neck
        {
          OFFSET 0 0 15.101124
          CHANNELS 3 Zrotation Yrotation Xrotation
          JOINT Head
          {
            OFFSET 0 0 11.325843
            CHANNELS 3 Zrotation Yrotation Xrotation
            End Site
            {
              OFFSET 0 0 14.157303
            }
          }
        }
      }
    }
  }
}
MOTION
Frames: 11
Frame Time: 0.0
0.0  93.25843  0.0  94.28561  -48.235763  -163.482177  16.70368  -53.755584  -23.43562  -1.936506  -1.425709  -4.609785  4.947904  2.248849  8.768014  -7.483593  23.665867  -42.109421  9.584205  13.101275  20.365606  8.163788  3.342053  0.356974  1.942184  3.617957  2.690113  5.743662  9.650075  7.690673  5.743662  9.650075  7.690672  -9.578554  27.789293  12.285941  177.566369  66.970512  -138.352667  -35.982523  -3.870863  99.045771  80.249425  -11.771168  -6.493341  19.323446  -8.057485  20.8882  155.64863  56.518298  98.455564  -19.267064  -28.570987  -114.235794  57.996152  -0.105694  -15.400102  7.888258  15.10552  15.903805  5.484337  11.544015  11.661002  
0.0  93.25843  0.0  95.416229  -47.845497  -164.847571  -0.742228  -55.695885  -5.930549  10.769493  -0.415447  -12.141031  6.456297  1.688728  9.025152  -9.489538  22.787046  -42.881916  10.781952  13.557817  20.36068  8.901302  3.4254  0.198012  1.792202  3.607408  2.608102  5.318398  9.646159  7.442426  5.318398  9.646158  7.442426  -8.975335  27.942697  12.671227  176.012895  66.170728  -140.688719  -36.333932  -3.69143  98.968154  79.984728  -12.059557  -6.334003  19.288667  -7.764352  21.924005  154.637075  57.156064  96.94978  -17.928189  -29.243218  -115.029214  57.809541  -0.455928  -15.142096  8.38094  15.614426  16.636258  5.816533  11.949798  12.182548  
0.0  93.25843  0.0  94.853652  -46.660417  -165.019499  -13.291413  -52.625306  3.547055  22.575459  -0.268974  -15.381522  4.747523  1.012715  9.04944  -12.534231  22.696444  -43.791344  12.696025  13.717324  20.757741  9.36484  3.447604  0.164405  1.33706  3.546154  2.549871  4.051944  9.535078  7.210975  4.051944  9.535078  7.210975  -8.1959  29.223666  13.094081  175.862521  65.870158  -141.727549  -36.661701  -3.372571  98.631399  79.898726  -12.330137  -6.079606  19.697517  -7.027662  22.877371  153.650661  57.465999  95.812479  -16.411482  -29.859355  -116.254862  57.801452  -0.605042  -15.101016  9.189231  16.50147  17.309206  6.370179  12.648797  12.639624  
0.0  93.25843  0.0  92.327578  -44.844935  -163.497667  -15.126253  -49.756352  2.798762  26.669257  -0.974647  -15.443144  2.032748  1.351167  8.373793  -15.491246  23.818669  -44.239192  13.932564  13.724641  21.359872  9.119428  3.46548  -0.171277  0.766383  3.57896  2.593188  2.494421  9.685706  7.249638  2.494421  9.685705  7.249637  -8.828714  30.370759  13.133827  177.642999  66.166785  -141.107716  -36.73303  -3.129417  98.091733  80.115578  -12.457114  -5.853744  19.525702  -6.936363  22.933662  152.52433  57.566882  94.840167  -15.258556  -30.020048  -117.395127  57.728865  -0.666936  -15.204153  9.455858  16.893784  17.459712  6.55031  12.953426  12.733485  
0.0  93.25843  0.0  90.659107  -43.533  -162.322872  -0.881455  -47.138339  -7.474802  17.258766  -1.508681  -14.865383  0.565949  1.25837  7.553702  -16.199003  25.24186  -43.781565  13.928032  13.91349  21.385112  7.63585  3.407413  -0.317933  0.368038  3.59735  2.596626  1.402498  9.77973  7.201232  1.402498  9.779731  7.201232  -9.721117  31.435914  13.103333  179.861348  66.882184  -139.862781  -36.608144  -3.188207  97.373731  80.46016  -12.39006  -5.881373  19.374663  -7.086331  23.075227  151.074631  57.91782  93.727777  -14.523206  -29.657079  -118.12899  57.421718  -0.810896  -15.179154  9.52717  17.008334  17.466994  6.598972  13.04159  12.733664  
0.0  93.25843  0.0  91.237152  -42.871673  -163.078719  17.790382  -43.753988  -19.071872  2.77717  -1.218108  -12.864063  1.378084  0.920573  7.61107  -14.243128  26.857619  -42.73432  13.300501  14.047263  21.368536  7.1902  4.05284  -0.276679  0.310501  3.632686  2.618025  1.25167  9.881987  7.253011  1.25167  9.881987  7.253011  -10.064269  32.086731  13.57493  -178.518368  67.535347  -138.43515  -36.50577  -3.646113  96.786623  80.751676  -12.226044  -6.21676  19.267239  -7.133214  23.439385  149.450663  58.619084  92.231439  -13.848859  -29.296586  -118.545405  56.964324  -1.037646  -14.937641  9.55752  17.059656  17.530493  6.617888  13.082065  12.778626  
0.0  93.25843  0.0  92.896102  -42.783041  -164.86212  29.983747  -39.765711  -25.35041  -7.998033  -1.939285  -9.545848  2.332501  0.845827  7.61697  -10.543894  28.361803  -41.000208  12.104386  14.443944  21.384411  6.969746  4.246467  -0.043197  0.462464  3.641328  2.690316  1.681238  9.886608  7.475176  1.681239  9.886608  7.475177  -9.899114  31.966406  13.905195  -179.349146  67.654793  -138.704474  -36.611286  -4.300066  96.512149  80.852358  -12.084237  -6.619025  19.240645  -6.875101  23.740852  147.825107  59.500638  90.31372  -13.165418  -29.37535  -118.726484  56.559681  -1.277898  -14.53037  9.525004  17.149996  17.673746  6.586232  13.151334  12.883585  
0.0  93.25843  0.0  94.058287  -43.321303  -166.050169  36.83662  -39.649516  -28.628408  -13.053586  -0.645356  -6.157053  2.538409  0.900196  7.550585  -6.849683  29.594995  -39.376831  10.122814  14.603122  21.568506  6.922418  3.947568  0.119909  0.641511  3.547296  2.728639  2.167384  9.608123  7.602179  2.167384  9.608123  7.602179  -9.740046  31.437275  13.927631  178.014493  67.569793  -140.501415  -37.013126  -4.826628  96.368708  80.68109  -12.096859  -6.879734  18.89926  -6.569366  24.094407  146.955535  59.937158  88.55329  -13.04398  -29.874213  -118.600053  56.208227  -1.478173  -14.17491  9.384233  17.215338  17.991122  6.469907  13.201525  13.121932  
0.0  93.25843  0.0  94.482403  -44.249123  -166.736566  38.514268  -41.3682  -29.812623  -13.588227  1.315114  -0.200139  1.950727  0.290263  5.440744  -4.228059  30.513419  -38.295935  8.438808  13.825394  21.984552  6.56884  3.695705  0.287358  0.778126  3.357264  2.657417  2.509168  9.076715  7.414726  2.509168  9.076716  7.414727  -9.62189  31.197552  14.494974  175.951534  67.495292  -142.106777  -37.663194  -4.971433  96.178987  80.415789  -12.313974  -6.819299  18.379693  -6.622901  25.127206  147.04652  59.766385  87.480271  -13.598822  -30.47445  -118.217654  55.857684  -1.662604  -13.926019  9.420633  17.227212  18.778252  6.47431  13.224735  13.706546  
0.0  93.25843  0.0  94.923805  -45.057351  -167.400647  35.534876  -43.779837  -28.237329  -11.118904  1.804161  4.2226  1.12807  0.552467  5.247607  -3.446201  30.964452  -38.362645  8.254507  12.206601  22.626486  5.618553  3.607877  0.470986  0.873415  3.189034  2.509189  2.730982  8.613549  7.010087  2.730982  8.613549  7.010087  -9.631105  31.491389  15.231606  175.326019  67.707814  -142.921961  -38.176928  -4.818766  96.039393  80.259426  -12.468683  -6.794566  17.859727  -7.015498  26.356708  147.689893  59.258862  86.862048  -14.419595  -30.935689  -117.675363  55.594639  -1.800805  -13.812025  9.664101  17.2248  19.680333  6.630347  13.246088  14.371348  
0.0  93.25843  0.0  95.973948  -45.64253  -168.664906  29.979781  -46.285617  -25.146504  -8.579612  2.528189  9.522262  1.228134  0.805433  4.922682  -4.337884  30.305042  -39.118795  9.657208  10.927997  23.017342  4.707527  3.483745  0.481414  0.990348  3.110771  2.424299  3.032023  8.391589  6.787053  3.032023  8.391589  6.787053  -9.933808  31.842241  15.690993  176.951764  67.524509  -142.09336  -38.055641  -4.649245  96.256203  80.224148  -12.567375  -6.843084  17.45956  -7.688671  27.07333  148.279081  58.773832  86.399737  -15.115472  -31.116932  -117.120653  55.409951  -1.915672  -13.871312  9.923347  17.168718  20.195325  6.811411  13.2216  14.74924  
